<svg width="990" height="354" viewBox="0 0 990 354" fill="none" xmlns="http://www.w3.org/2000/svg">
<circle cx="495" cy="241" r="209" fill="url(#paint0_linear_6_1703)" fill-opacity="0.8"/>
<circle cx="3" cy="125" r="3" transform="rotate(-90 3 125)" fill="#407FF0" fill-opacity="0.1"/>
<circle cx="3" cy="103" r="3" transform="rotate(-90 3 103)" fill="#407FF0" fill-opacity="0.1"/>
<circle cx="3" cy="81" r="3" transform="rotate(-90 3 81)" fill="#407FF0" fill-opacity="0.1"/>
<circle cx="3" cy="59" r="3" transform="rotate(-90 3 59)" fill="#407FF0" fill-opacity="0.1"/>
<circle cx="3" cy="37" r="3" transform="rotate(-90 3 37)" fill="#407FF0" fill-opacity="0.1"/>
<circle cx="3" cy="15" r="3" transform="rotate(-90 3 15)" fill="#407FF0" fill-opacity="0.1"/>
<circle cx="25" cy="125" r="3" transform="rotate(-90 25 125)" fill="#407FF0" fill-opacity="0.1"/>
<circle cx="25" cy="103" r="3" transform="rotate(-90 25 103)" fill="#407FF0" fill-opacity="0.1"/>
<circle cx="25" cy="81" r="3" transform="rotate(-90 25 81)" fill="#407FF0" fill-opacity="0.1"/>
<circle cx="25" cy="59" r="3" transform="rotate(-90 25 59)" fill="#407FF0" fill-opacity="0.1"/>
<circle cx="25" cy="37" r="3" transform="rotate(-90 25 37)" fill="#407FF0" fill-opacity="0.1"/>
<circle cx="25" cy="15" r="3" transform="rotate(-90 25 15)" fill="#407FF0" fill-opacity="0.1"/>
<circle cx="47" cy="125" r="3" transform="rotate(-90 47 125)" fill="#407FF0" fill-opacity="0.1"/>
<circle cx="47" cy="103" r="3" transform="rotate(-90 47 103)" fill="#407FF0" fill-opacity="0.1"/>
<circle cx="47" cy="81" r="3" transform="rotate(-90 47 81)" fill="#407FF0" fill-opacity="0.1"/>
<circle cx="47" cy="59" r="3" transform="rotate(-90 47 59)" fill="#407FF0" fill-opacity="0.1"/>
<circle cx="47" cy="37" r="3" transform="rotate(-90 47 37)" fill="#407FF0" fill-opacity="0.1"/>
<circle cx="47" cy="15" r="3" transform="rotate(-90 47 15)" fill="#407FF0" fill-opacity="0.1"/>
<circle cx="69" cy="125" r="3" transform="rotate(-90 69 125)" fill="#407FF0" fill-opacity="0.1"/>
<circle cx="69" cy="103" r="3" transform="rotate(-90 69 103)" fill="#407FF0" fill-opacity="0.1"/>
<circle cx="69" cy="81" r="3" transform="rotate(-90 69 81)" fill="#407FF0" fill-opacity="0.1"/>
<circle cx="69" cy="59" r="3" transform="rotate(-90 69 59)" fill="#407FF0" fill-opacity="0.1"/>
<circle cx="69" cy="37" r="3" transform="rotate(-90 69 37)" fill="#407FF0" fill-opacity="0.1"/>
<circle cx="69" cy="15" r="3" transform="rotate(-90 69 15)" fill="#407FF0" fill-opacity="0.1"/>
<circle cx="91" cy="125" r="3" transform="rotate(-90 91 125)" fill="#407FF0" fill-opacity="0.1"/>
<circle cx="91" cy="103" r="3" transform="rotate(-90 91 103)" fill="#407FF0" fill-opacity="0.1"/>
<circle cx="91" cy="81" r="3" transform="rotate(-90 91 81)" fill="#407FF0" fill-opacity="0.1"/>
<circle cx="91" cy="59" r="3" transform="rotate(-90 91 59)" fill="#407FF0" fill-opacity="0.1"/>
<circle cx="91" cy="37" r="3" transform="rotate(-90 91 37)" fill="#407FF0" fill-opacity="0.1"/>
<circle cx="91" cy="15" r="3" transform="rotate(-90 91 15)" fill="#407FF0" fill-opacity="0.1"/>
<circle cx="113" cy="125" r="3" transform="rotate(-90 113 125)" fill="#407FF0" fill-opacity="0.1"/>
<circle cx="113" cy="103" r="3" transform="rotate(-90 113 103)" fill="#407FF0" fill-opacity="0.1"/>
<circle cx="113" cy="81" r="3" transform="rotate(-90 113 81)" fill="#407FF0" fill-opacity="0.1"/>
<circle cx="113" cy="59" r="3" transform="rotate(-90 113 59)" fill="#407FF0" fill-opacity="0.1"/>
<circle cx="113" cy="37" r="3" transform="rotate(-90 113 37)" fill="#407FF0" fill-opacity="0.1"/>
<circle cx="113" cy="15" r="3" transform="rotate(-90 113 15)" fill="#407FF0" fill-opacity="0.1"/>
<circle cx="135" cy="125" r="3" transform="rotate(-90 135 125)" fill="#407FF0" fill-opacity="0.1"/>
<circle cx="135" cy="103" r="3" transform="rotate(-90 135 103)" fill="#407FF0" fill-opacity="0.1"/>
<circle cx="135" cy="81" r="3" transform="rotate(-90 135 81)" fill="#407FF0" fill-opacity="0.1"/>
<circle cx="135" cy="59" r="3" transform="rotate(-90 135 59)" fill="#407FF0" fill-opacity="0.1"/>
<circle cx="135" cy="37" r="3" transform="rotate(-90 135 37)" fill="#407FF0" fill-opacity="0.1"/>
<circle cx="135" cy="15" r="3" transform="rotate(-90 135 15)" fill="#407FF0" fill-opacity="0.1"/>
<circle cx="877" cy="249" r="3" fill="#407FF0" fill-opacity="0.1"/>
<circle cx="899" cy="249" r="3" fill="#407FF0" fill-opacity="0.1"/>
<circle cx="921" cy="249" r="3" fill="#407FF0" fill-opacity="0.1"/>
<circle cx="943" cy="249" r="3" fill="#407FF0" fill-opacity="0.1"/>
<circle cx="965" cy="249" r="3" fill="#407FF0" fill-opacity="0.1"/>
<circle cx="987" cy="249" r="3" fill="#407FF0" fill-opacity="0.1"/>
<circle cx="877" cy="271" r="3" fill="#407FF0" fill-opacity="0.1"/>
<circle cx="899" cy="271" r="3" fill="#407FF0" fill-opacity="0.1"/>
<circle cx="921" cy="271" r="3" fill="#407FF0" fill-opacity="0.1"/>
<circle cx="943" cy="271" r="3" fill="#407FF0" fill-opacity="0.1"/>
<circle cx="965" cy="271" r="3" fill="#407FF0" fill-opacity="0.1"/>
<circle cx="987" cy="271" r="3" fill="#407FF0" fill-opacity="0.1"/>
<circle cx="877" cy="293" r="3" fill="#407FF0" fill-opacity="0.1"/>
<circle cx="899" cy="293" r="3" fill="#407FF0" fill-opacity="0.1"/>
<circle cx="921" cy="293" r="3" fill="#407FF0" fill-opacity="0.1"/>
<circle cx="943" cy="293" r="3" fill="#407FF0" fill-opacity="0.1"/>
<circle cx="965" cy="293" r="3" fill="#407FF0" fill-opacity="0.1"/>
<circle cx="987" cy="293" r="3" fill="#407FF0" fill-opacity="0.1"/>
<circle cx="877" cy="315" r="3" fill="#407FF0" fill-opacity="0.1"/>
<circle cx="899" cy="315" r="3" fill="#407FF0" fill-opacity="0.1"/>
<circle cx="921" cy="315" r="3" fill="#407FF0" fill-opacity="0.1"/>
<circle cx="943" cy="315" r="3" fill="#407FF0" fill-opacity="0.1"/>
<circle cx="965" cy="315" r="3" fill="#407FF0" fill-opacity="0.1"/>
<circle cx="987" cy="315" r="3" fill="#407FF0" fill-opacity="0.1"/>
<circle cx="877" cy="337" r="3" fill="#407FF0" fill-opacity="0.1"/>
<circle cx="899" cy="337" r="3" fill="#407FF0" fill-opacity="0.1"/>
<circle cx="921" cy="337" r="3" fill="#407FF0" fill-opacity="0.1"/>
<circle cx="943" cy="337" r="3" fill="#407FF0" fill-opacity="0.1"/>
<circle cx="965" cy="337" r="3" fill="#407FF0" fill-opacity="0.1"/>
<circle cx="987" cy="337" r="3" fill="#407FF0" fill-opacity="0.1"/>
<defs>
<linearGradient id="paint0_linear_6_1703" x1="367.5" y1="-1071.5" x2="478" y2="193.5" gradientUnits="userSpaceOnUse">
<stop stop-color="#407FF0"/>
<stop offset="1" stop-color="#407FF0" stop-opacity="0"/>
</linearGradient>
</defs>
</svg>
